:FULLY-SPECIFIED
:FORCE-ALL-JOINTS-BE-3DOF
:DEGREES
816
root -4.28285 14.71 -40.3589 394.296 -74.9327 334.44
lfemur -68.5942 15.9235 -24.619
ltibia 53.1054 0 0
lfoot -1.95208 15.035 0
ltoes -17.4383 0 0
rfemur -30.1393 -5.57167 22.6727
rtibia 70.1791 0 0
rfoot -28.7911 -30.1408 0
rtoes -25.9232 0 0
lowerback 18.6818 1.0569 3.88683
upperback 0.692199 2.43632 3.23556
thorax -9.73297 1.01338 0.680001
lowerneck -2.34904 12.7921 3.74269
upperneck -1.59064 17.0358 -9.82482
head 1.16155 8.47604 -3.32071
lclavicle -4.67144e-15 7.95139e-15 0
lhumerus 100.732 -33.037 20.2489
lradius 96.911 0 0
lwrist 22.9583 0 0
lhand -6.48187 23.2503 0
lfingers 7.12502 0 0
lthumb 19.3691 52.3057 0
rclavicle -4.67144e-15 7.95139e-15 0
rhumerus 23.1582 33.7787 -57.7201
rradius 64.2761 0 0
rwrist -11.5006 0 0
rhand -14.0781 -42.9577 0
rfingers 7.12502 0 0
rthumb 12.0538 -72.5905 0
817
root -4.14739 14.7229 -40.3834 392.027 -74.3767 336.921
lfemur -67.7957 16.1964 -23.4796
ltibia 54.4457 0 0
lfoot -1.82121 15.0382 0
ltoes -16.5164 0 0
rfemur -31.0768 -6.80773 22.6882
rtibia 70.1674 0 0
rfoot -28.7793 -29.9064 0
rtoes -25.0835 0 0
lowerback 18.6255 1.05804 3.69067
upperback 0.603956 2.39429 3.12691
thorax -9.80266 1.00147 0.683967
lowerneck -2.12521 12.7933 4.04046
upperneck -1.75224 17.0299 -10.1705
head 1.13498 8.48043 -3.50179
lclavicle 3.94588e-14 9.14409e-15 0
lhumerus 102.324 -33.4622 19.5247
lradius 98.5863 0 0
lwrist 21.6963 0 0
lhand -7.92992 23.72 0
lfingers 7.12502 0 0
lthumb 17.9763 52.9093 0
rclavicle 3.94588e-14 9.14409e-15 0
rhumerus 24.6641 35.0188 -56.9727
rradius 64.3228 0 0
rwrist -10.5079 0 0
rhand -13.7159 -42.5113 0
rfingers 7.12502 0 0
rthumb 12.403 -72.1234 0
818
root -4.01894 14.7402 -40.4004 390.069 -73.9321 339.063
lfemur -66.8981 16.5032 -22.1986
ltibia 55.8628 0 0
lfoot -1.68842 15.0415 0
ltoes -15.52 0 0
rfemur -31.9573 -7.96869 22.7027
rtibia 70.1516 0 0
rfoot -28.7671 -29.6654 0
rtoes -24.3165 0 0
lowerback 18.5004 0.991298 3.3944
upperback 0.595062 2.23409 3.05112
thorax -9.75189 0.940477 0.812816
lowerneck -2.17975 12.9299 3.99244
upperneck -1.76273 17.2152 -10.3351
head 1.16764 8.57113 -3.53319
lclavicle -6.36111e-15 2.54444e-14 0
lhumerus 103.385 -33.6793 19.0689
lradius 99.9979 0 0
lwrist 20.337 0 0
lhand -8.78359 23.8601 0
lfingers 7.12502 0 0
lthumb 17.1547 53.1228 0
rclavicle -6.36111e-15 2.54444e-14 0
rhumerus 26.4542 36.5749 -56.0431
rradius 64.4635 0 0
rwrist -9.88303 0 0
rhand -13.575 -41.9731 0
rfingers 7.12502 0 0
rthumb 12.5389 -71.5769 0
819
root -3.89351 14.7591 -40.4176 388.269 -73.3753 341.062
lfemur -65.9154 16.839 -20.7962
ltibia 57.3397 0 0
lfoot -1.55501 15.0447 0
ltoes -14.4608 0 0
rfemur -32.7667 -9.03578 22.716
rtibia 70.1321 0 0
rfoot -28.7547 -29.4201 0
rtoes -23.6343 0 0
lowerback 18.3635 0.884077 3.07114
upperback 0.559063 2.02232 3.03753
thorax -9.72692 0.857189 1.03849
lowerneck -2.41447 13.1137 3.7429
upperneck -1.53685 17.4792 -10.2564
head 1.26847 8.69224 -3.42734
lclavicle -2.74323e-14 5.60573e-14 0
lhumerus 104.038 -33.9204 18.8844
lradius 101.255 0 0
lwrist 19.2062 0 0
lhand -9.25721 23.7749 0
lfingers 7.12502 0 0
lthumb 16.6988 53.0767 0
rclavicle -2.74323e-14 5.60573e-14 0
rhumerus 28.3439 38.2 -54.8682
rradius 64.6218 0 0
rwrist -9.69531 0 0
rhand -13.7846 -41.505 0
rfingers 7.12502 0 0
rthumb 12.3368 -71.1211 0
820
root -3.77527 14.776 -40.4307 386.453 -72.8675 342.986
lfemur -64.8618 17.1991 -19.2927
ltibia 58.8591 0 0
lfoot -1.42222 15.048 0
ltoes -13.3501 0 0
rfemur -33.4906 -9.99021 22.7279
rtibia 70.1091 0 0
rfoot -28.7422 -29.1725 0
rtoes -23.049 0 0
lowerback 18.2522 0.885413 3.26605
upperback 0.490623 2.02441 2.54879
thorax -9.71323 0.840823 0.394933
lowerneck -2.17725 12.9692 4.27036
upperneck -1.64931 17.2716 -10.2103
head 1.222 8.59733 -3.52939
lclavicle -2.64384e-14 1.59028e-15 0
lhumerus 105.599 -34.4529 17.9737
lradius 102.187 0 0
lwrist 18.6607 0 0
lhand -9.58125 23.1628 0
lfingers 7.12502 0 0
lthumb 16.3869 52.4906 0
rclavicle -2.64384e-14 1.59028e-15 0
rhumerus 29.247 39.0203 -54.6099
rradius 64.7872 0 0
rwrist -9.17263 0 0
rhand -13.6536 -40.8712 0
rfingers 7.12502 0 0
rthumb 12.4631 -70.4795 0
821
root -3.66157 14.7792 -40.4415 384.902 -72.3114 344.638
lfemur -63.7516 17.5786 -17.7083
ltibia 60.4042 0 0
lfoot -1.29134 15.0512 0
ltoes -12.1993 0 0
rfemur -34.1148 -10.8132 22.7382
rtibia 70.0831 0 0
rfoot -28.7297 -28.9249 0
rtoes -22.5727 0 0
lowerback 18.3645 0.386855 4.72491
upperback 0.315096 1.56706 1.18217
thorax -9.8966 0.520432 -1.80598
lowerneck -2.18488 13.0674 5.22711
upperneck -1.63087 17.3761 -9.35259
head 1.23752 8.65083 -3.39655
lclavicle 4.22417e-15 7.85199e-15 0
lhumerus 106.639 -34.9364 15.8949
lradius 103.336 0 0
lwrist 19.065 0 0
lhand -8.96267 23.2973 0
lfingers 7.12502 0 0
lthumb 16.9824 52.5749 0
rclavicle 4.22417e-15 7.85199e-15 0
rhumerus 29.8969 39.8657 -56.3648
rradius 64.61 0 0
rwrist -8.40454 0 0
rhand -13.7352 -40.2017 0
rfingers 7.12502 0 0
rthumb 12.3844 -69.8148 0
822
root -3.55096 14.8077 -40.4512 383.904 -71.7614 345.654
lfemur -62.5988 17.9725 -16.0633
ltibia 61.9577 0 0
lfoot -1.16364 15.0544 0
ltoes -11.0199 0 0
rfemur -34.6251 -11.486 22.7466
rtibia 70.0544 0 0
rfoot -28.7173 -28.6796 0
rtoes -22.2174 0 0
lowerback 18.3057 0.399199 4.47946
upperback 0.266515 1.53442 1.19925
thorax -9.92616 0.517131 -1.63907
lowerneck -2.19703 13.1186 5.12933
upperneck -1.39431 17.4598 -9.24841
head 1.3024 8.68943 -3.33304
lclavicle 2.20154e-14 -1.64991e-14 0
lhumerus 106.928 -35.326 16.0142
lradius 104.017 0 0
lwrist 20.0769 0 0
lhand -8.95563 23.1951 0
lfingers 7.12502 0 0
lthumb 16.9891 52.4721 0
rclavicle 2.20154e-14 -1.64991e-14 0
rhumerus 31.2424 41.2947 -55.4573
rradius 64.6044 0 0
rwrist -7.79229 0 0
rhand -14.1455 -39.7879 0
rfingers 7.12502 0 0
rthumb 11.9888 -69.4246 0
823
root -3.44487 14.8291 -40.4547 382.977 -71.1712 346.593
lfemur -61.4177 18.3762 -14.3777
ltibia 63.5028 0 0
lfoot -1.04038 15.0574 0
ltoes -9.82335 0 0
rfemur -35.0072 -11.9898 22.7529
rtibia 70.0232 0 0
rfoot -28.7051 -28.4386 0
rtoes -21.9954 0 0
lowerback 18.12 1.26021 3.18359
upperback 0.162983 2.46504 1.89471
thorax -9.96737 1.03897 -0.38617
lowerneck -1.99271 12.511 5.64096
upperneck -0.958507 16.6878 -10.0369
head 1.48471 8.2966 -3.71696
lclavicle 2.43511e-14 3.29983e-14 0
lhumerus 108.386 -36.207 16.9678
lradius 104.579 0 0
lwrist 21.6454 0 0
lhand -9.1099 23.552 0
lfingers 7.12502 0 0
lthumb 16.8406 52.8418 0
rclavicle 2.43511e-14 3.29983e-14 0
rhumerus 31.3098 41.7727 -53.4401
rradius 64.8323 0 0
rwrist -6.99287 0 0
rhand -15.7842 -40.8087 0
rfingers 7.12502 0 0
rthumb 10.4084 -70.5311 0
824
root -3.34382 14.8465 -40.4555 382.087 -70.605 347.473
lfemur -60.2223 18.7847 -12.672
ltibia 65.0222 0 0
lfoot -0.922832 15.0603 0
ltoes -8.62109 0 0
rfemur -35.2469 -12.3059 22.7568
rtibia 69.99 0 0
rfoot -28.6933 -28.2042 0
rtoes -21.9187 0 0
lowerback 18.0472 1.24507 2.97851
upperback 0.101762 2.40391 1.88824
thorax -10.0039 1.02047 -0.260176
lowerneck -2.01265 12.525 5.63868
upperneck -0.727495 16.7194 -9.91606
head 1.5539 8.30866 -3.66563
lclavicle 4.1049e-14 -7.15625e-15 0
lhumerus 108.322 -36.4429 17.1287
lradius 104.978 0 0
lwrist 23.4585 0 0
lhand -9.65107 24.4905 0
lfingers 7.12502 0 0
lthumb 16.3196 53.8238 0
rclavicle 4.1049e-14 -7.15625e-15 0
rhumerus 32.6413 43.4123 -52.3106
rradius 64.9283 0 0
rwrist -6.71754 0 0
rhand -17.0453 -40.7015 0
rfingers 7.12502 0 0
rthumb 9.19162 -70.4812 0
825
root -3.24692 14.8623 -40.4504 381.209 -70.0515 348.274
lfemur -59.027 19.1932 -10.9662
ltibia 66.4991 0 0
lfoot -0.812267 15.0631 0
ltoes -7.42455 0 0
rfemur -35.33 -12.4154 22.7582
rtibia 69.9552 0 0
rfoot -28.6819 -27.9787 0
rtoes -21.9061 0 0
lowerback 18.0322 1.19034 2.84871
upperback 0.0360933 2.30602 1.85513
thorax -10.0741 0.979448 -0.197589
lowerneck -2.00102 12.5356 5.6227
upperneck -0.508851 16.7459 -9.78411
head 1.61058 8.31928 -3.61161
lclavicle 9.64106e-15 9.14409e-15 0
lhumerus 107.927 -36.5591 17.2488
lradius 105.375 0 0
lwrist 25.0493 0 0
lhand -10.5332 25.9624 0
lfingers 7.12502 0 0
lthumb 15.4701 55.3634 0
rclavicle 9.64106e-15 9.14409e-15 0
rhumerus 33.9564 45.0451 -51.2012
rradius 65.0475 0 0
rwrist -5.74404 0 0
rhand -15.7495 -38.5917 0
rfingers 7.12502 0 0
rthumb 10.4418 -68.3124 0
826
root -3.151 14.8778 -40.4449 380.533 -69.4565 348.872
lfemur -57.8459 19.5969 -9.2807
ltibia 67.9162 0 0
lfoot -0.709956 15.0656 0
ltoes -6.24517 0 0
rfemur -35.2873 -12.4469 22.7143
rtibia 69.9189 0 0
rfoot -28.671 -27.7642 0
rtoes -21.8699 0 0
lowerback 18.022 1.19643 2.67467
upperback -0.0403435 2.28798 1.90789
thorax -10.1629 0.980534 -0.0371849
lowerneck -2.07832 12.4938 5.48027
upperneck -0.175818 16.7069 -9.58403
head 1.69583 8.29331 -3.50893
lclavicle 2.40529e-14 -1.15295e-14 0
lhumerus 107.29 -36.6392 17.412
lradius 105.974 0 0
lwrist 26.2637 0 0
lhand -11.9723 27.8197 0
lfingers 7.12502 0 0
lthumb 14.0837 57.3225 0
rclavicle 2.40529e-14 -1.15295e-14 0
rhumerus 35.2474 46.6472 -49.7915
rradius 65.3453 0 0
rwrist -4.94632 0 0
rhand -16.4138 -38.7141 0
rfingers 7.12502 0 0
rthumb 9.80094 -68.466 0
827
root -3.05904 14.8994 -40.4357 379.799 -68.8628 349.459
lfemur -56.6931 19.9908 -7.63563
ltibia 69.2565 0 0
lfoot -0.617166 15.0679 0
ltoes -5.09439 0 0
rfemur -35.1638 -12.5378 22.5874
rtibia 69.8816 0 0
rfoot -28.6609 -27.5629 0
rtoes -21.8119 0 0
lowerback 18.1129 1.32579 2.36503
upperback -0.141162 2.41587 2.02483
thorax -10.3431 1.05838 0.229453
lowerneck -2.24165 12.3458 5.4894
upperneck 0.325547 16.5327 -9.46573
head 1.86507 8.19416 -3.45511
lclavicle 7.95139e-16 -3.57812e-15 0
lhumerus 106.683 -36.7711 17.5672
lradius 106.783 0 0
lwrist 26.9177 0 0
lhand -13.9706 29.8388 0
lfingers 7.12502 0 0
lthumb 12.1574 59.4655 0
rclavicle 7.95139e-16 -3.57812e-15 0
rhumerus 36.2706 48.1082 -48.272
rradius 65.7907 0 0
rwrist -4.02465 0 0
rhand -16.3857 -38.6249 0
rfingers 7.12502 0 0
rthumb 9.82805 -68.3755 0
828
root -2.9685 14.9108 -40.4235 379.211 -68.261 349.888
lfemur -55.5829 20.3703 -6.05123
ltibia 70.5031 0 0
lfoot -0.535169 15.0699 0
ltoes -3.98365 0 0
rfemur -34.9667 -12.6831 22.3848
rtibia 69.8437 0 0
rfoot -28.6515 -27.377 0
rtoes -21.7344 0 0
lowerback 18.1301 1.27698 2.31909
upperback -0.166295 2.34573 2.03942
thorax -10.384 1.02791 0.289449
lowerneck -2.36375 12.2986 5.43043
upperneck 0.547513 16.4779 -9.36018
head 1.93901 8.1604 -3.39911
lclavicle 3.48867e-14 9.14409e-15 0
lhumerus 105.435 -36.6395 17.6282
lradius 107.764 0 0
lwrist 26.8841 0 0
lhand -16.3127 32.1089 0
lfingers 7.12502 0 0
lthumb 9.8985 61.8562 0
rclavicle 3.48867e-14 9.14409e-15 0
rhumerus 37.8229 49.6921 -46.5049
rradius 66.4969 0 0
rwrist -3.38428 0 0
rhand -16.5865 -39.3294 0
rfingers 7.12502 0 0
rthumb 9.63429 -69.0891 0
